<?xml version="1.0" standalone="no"?>
<svg version="1.1" id="downloadSvg" xmlns="http://www.w3.org/2000/svg" xmlns:xlink="http://www.w3.org/1999/xlink" x="0px" y="0px" viewBox="0 0 1200 1200" enable-background="new 0 0 1200 1200" xml:space="preserve" height="512" width="512">
<g>
	<path fill="#75C1EA" d="M595.606,50.984c-215.572,20.373-196.987,225.38-146.054,330.642&#xA;&#9;&#9;c27.176,56.163,84.323,123.784,141.567,139.308c-12.404,11.499-23.625,27.655-16.255,33.439&#xA;&#9;&#9;c22.198,17.421,64.773,14.772,73.078,2.259c5.08-7.654-3.749-24.041-15.059-35.56c32.504-9.35,93.588-42.943,131.37-145.43&#xA;&#9;&#9;C811.178,248.35,778.53,33.696,595.606,50.984z" style="fill: rgb(68, 131, 102);"/>
	<g>
		<g>
			<path fill="#64B2E8" d="M497.939,136.297c13.918-31.813,34.07-57.398,59.195-79.216&#xA;&#9;&#9;&#9;&#9;C382.552,97.142,401.872,283.085,449.553,381.625c21.374,44.173,61.291,95.432,105.211,122.865&#xA;&#9;&#9;&#9;&#9;C459.143,411.937,447.155,256.332,497.939,136.297z" style="fill: rgb(76, 152, 117);"/>
			<path fill="#64B2E8" d="M627.367,50.348c14.861,16.447,25.009,37.986,33.559,57.935&#xA;&#9;&#9;&#9;&#9;c57.257,129.451,56.053,300.236-36.801,414.894c28.945-5.481,98.607-34.908,140.128-147.537&#xA;&#9;&#9;&#9;&#9;C808.32,256.103,782.203,59.536,627.367,50.348z" style="fill: rgb(76, 152, 117);"/>
			<path fill="#5DA6E2" d="M439.366,215.243c7.283-69.193,53.633-126.651,113.898-154.723c1.279-1.155,2.563-2.306,3.87-3.44&#xA;&#9;&#9;&#9;&#9;C382.552,97.142,401.872,283.085,449.553,381.625c16.662,34.435,44.614,73.127,76.925,101.53&#xA;&#9;&#9;&#9;&#9;C461.556,412.68,428.265,313.305,439.366,215.243z" style="fill: rgb(58, 126, 94);"/>
			<g>
				<path fill="#4A5259" d="M641.943,532.186c16.31,8.815,29.098,23.458,35.775,40.925c8.612,22.529,3.122,43.121-2.656,65.543&#xA;&#9;&#9;&#9;&#9;&#9;c-4.452,17.278-7.042,36.379-0.597,53.549c4.952,13.191,17.949,26.059,32.946,20.063c7.516-3.005,4.237-15.326-3.385-12.279&#xA;&#9;&#9;&#9;&#9;&#9;c-14.903,5.958-19.946-17.316-20.534-27.147c-0.582-9.717,0.952-19.16,3.267-28.577c4.623-18.795,10.572-36.659,7.823-56.282&#xA;&#9;&#9;&#9;&#9;&#9;c-4.325-30.878-24.712-57.138-52.703-69.908c-3.19,1.192-6.212,2.19-9.01,2.994C636.21,524.467,639.329,528.286,641.943,532.186&#xA;&#9;&#9;&#9;&#9;&#9;z" style="fill: rgb(47, 96, 73);"/>
				<path fill="#4A5259" d="M632.864,521.064c1.977-1.405,3.926-2.844,5.852-4.307c-0.838-0.345-1.657-0.724-2.507-1.044&#xA;&#9;&#9;&#9;&#9;&#9;c-3.043-1.15-5.382,0.105-6.646,2.201C630.681,518.911,631.783,519.964,632.864,521.064z" style="fill: rgb(47, 96, 73);"/>
				<path fill="#5DA6E2" d="M764.252,375.641c43.449-117.859,18.661-310.588-130.449-324.783&#xA;&#9;&#9;&#9;&#9;&#9;c27.298,16.54,50.001,45.644,65.322,70.159c79.38,120.274,54.223,308.686-60.409,395.74c-1.927,1.463-3.875,2.902-5.852,4.307&#xA;&#9;&#9;&#9;&#9;&#9;c-0.005,0.003-0.009,0.007-0.014,0.01c0,0,0.013-0.004,0.019-0.006c2.798-0.804,5.821-1.802,9.01-2.994&#xA;&#9;&#9;&#9;&#9;&#9;C675.727,505.423,729.714,469.329,764.252,375.641z" style="fill: rgb(58, 126, 94);"/>
			</g>
		</g>
		<g>
			<path fill="#64B2E8" d="M627.005,528.712c5.917,10.462,10.274,21.938,12.079,34.227c4.055-1.642,7.171-3.768,8.857-6.309&#xA;&#9;&#9;&#9;&#9;c3.582-5.397,0.242-15.134-5.999-24.444c-1.007-1.503-2.108-2.984-3.249-4.443c-0.438,0.174-0.918,0.312-1.456,0.395&#xA;&#9;&#9;&#9;&#9;C633.854,528.658,630.437,528.785,627.005,528.712z" style="fill: rgb(76, 152, 117);"/>
			<g>
				<path fill="#64B2E8" d="M583.889,528.351c-8.947,10.188-14.906,21.407-9.026,26.021c2.949,2.314,6.279,4.243,9.819,5.873&#xA;&#9;&#9;&#9;&#9;&#9;c3.376-11.778,8.265-23.253,14.852-33.661C594.231,526.457,588.995,526.84,583.889,528.351z" style="fill: rgb(76, 152, 117);"/>
				<path fill="#4A5259" d="M723.406,1125.945c-7.983,13.877-27.635,12.252-40.722,7.634c-14.295-5.045-26.46-15.534-34.577-28.218&#xA;&#9;&#9;&#9;&#9;&#9;c-4.956-7.743-8.529-16.425-10.139-25.474c22.39,4.899,47.682-1.106,53.218-26.439c7.115-32.558-30.872-48.027-52.437-25.083&#xA;&#9;&#9;&#9;&#9;&#9;c-8.757,9.316-13.186,20.749-14.311,32.732c-0.098-0.061-0.201-0.117-0.298-0.178c-30.03-18.938-37.971-57.124-31.852-90.027&#xA;&#9;&#9;&#9;&#9;&#9;c6.195-33.309,24.153-59.408,47.922-82.661c19.264-18.847,33.269-40.563,23.373-68.234&#xA;&#9;&#9;&#9;&#9;&#9;c-5.205-14.553-14.482-27.49-22.681-40.446c-9.258-14.63-18.616-29.206-28.656-43.316c-20.2-28.391-46.68-52.406-64.622-82.334&#xA;&#9;&#9;&#9;&#9;&#9;c-16.524-27.564-18.062-60.67-2.815-89.282c7.447-13.974,18.873-26.917,33.274-34.006c1.914-0.942,3.851-1.683,5.807-2.262&#xA;&#9;&#9;&#9;&#9;&#9;c5.106-1.511,10.342-1.894,15.645-1.767c9.064,0.218,18.323,1.934,27.471,2.128c3.432,0.073,6.849-0.054,10.233-0.574&#xA;&#9;&#9;&#9;&#9;&#9;c0.538-0.083,1.018-0.221,1.456-0.395c6.132-2.43,2.652-13.035-4.841-11.884c-2.022,0.311-4.023,0.472-6.014,0.574&#xA;&#9;&#9;&#9;&#9;&#9;c-2.968,0.151-5.908,0.117-8.823-0.04c-3.82-0.207-7.601-0.597-11.361-0.962c-3.04-0.294-6.068-0.569-9.091-0.718&#xA;&#9;&#9;&#9;&#9;&#9;c-8.926-0.44-17.815,0.238-26.909,4.904c-14.658,7.521-26.857,20.089-35.319,34.098c-16.516,27.342-20.02,62.574-7.283,92.071&#xA;&#9;&#9;&#9;&#9;&#9;c8.293,19.205,21.954,35.917,35.471,51.669c15.801,18.412,31.151,36.719,44.795,56.837&#xA;&#9;&#9;&#9;&#9;&#9;c12.917,19.046,26.536,38.532,37.265,58.914c5.823,11.061,9.981,23.277,6.459,35.801c-3.112,11.066-11.165,19.65-19.111,27.553&#xA;&#9;&#9;&#9;&#9;&#9;c-28.171,28.02-49.963,58.602-55.228,99.115c-4.66,35.855,6.182,74.427,37.504,95.24c2.58,1.715,5.41,3.244,8.397,4.585&#xA;&#9;&#9;&#9;&#9;&#9;c1.978,17.904,10.251,35.665,21.674,48.31c19.627,21.728,69.007,41.791,88.12,8.563&#xA;&#9;&#9;&#9;&#9;&#9;C738.493,1125.257,727.495,1118.836,723.406,1125.945z M664.446,1029.448c20.189,0.397,17.306,27.16,4.482,35.219&#xA;&#9;&#9;&#9;&#9;&#9;c-9.52,5.984-21.259,5.736-31.843,2.311C637.842,1051.043,645.739,1029.08,664.446,1029.448z" style="fill: rgb(47, 96, 73);"/>
			</g>
		</g>
	</g>
</g>
</svg>